<?xml version="1.0" encoding="UTF-8"?>
<svg width="512" height="512" viewBox="0 0 512 512" xmlns="http://www.w3.org/2000/svg">
    <rect width="512" height="512" fill="none"/>
    <path d="M256 64C185.308 64 128 121.308 128 192v256h256V192c0-70.692-57.308-128-128-128zm0 32c53.02 0 96 42.98 96 96v32H160v-32c0-53.02 42.98-96 96-96zm-96 160h192v192H160V256z" fill="#007bff"/>
    <path d="M256 288c17.673 0 32 14.327 32 32 0 11.782-6.37 22.066-15.837 27.648L272 384h-32l-.163-36.352C230.37 342.066 224 331.782 224 320c0-17.673 14.327-32 32-32z" fill="#007bff"/>
</svg>